<svg xmlns="http://www.w3.org/2000/svg" width="147.3" height="147.3" style=""><rect id="backgroundrect" width="100%" height="100%" x="0" y="0" fill="none" stroke="none"/><title>ogg_logo_new</title><g class="currentLayer" style=""><title>Layer 1</title><path d="M73.6,0a73.6,73.6,0,1,0,73.6,73.6A73.6,73.6,0,0,0,73.6,0ZM98,116.8c-19.4,14.8-46.7,10.1-61.9-10.5-12-16.2-13-37-2.6-54.6,15.3-26,49.1-36.9,76.8-24.9l2.5,1.3-23-.8V28l6.1,1v1.1c-2.2.3-4.5,1-6.7.8C69.6,29.2,44.4,44.6,38,65.1c-7,22.4,7.5,46.8,30.3,50.3,16,2.4,32.2-9.2,34-25.1,1-9-3.2-16-10.5-21s-12.9-4.2-19.4-.5S63.9,77.3,65,84a11.9,11.9,0,0,0,.8-2c1.3-6.8,5-10.9,10.9-11.9a15,15,0,0,1,16,7.3c6,10.1-.4,23.3-12.7,25.7-9.2,1.8-16.4-1.8-21.8-9.1s-5.3-17.4-.8-24.6c11.7-18.8,38-18.2,50.4,1.2C117.4,85.6,113.2,105.2,98,116.8Z" style="" id="svg_1" class="selected" fill="#c40c00" fill-opacity="1"/><path d="M78.8,96.1A12.6,12.6,0,0,0,78.5,71c-7.9.3-12.2,6.1-12.6,12.6S72,96.2,78.8,96.1Zm.4-17.6a5.1,5.1,0,0,1,4.9,5.4,5,5,0,1,1-4.9-5.4Z" style="" id="svg_2" class="" fill="#c40c00" fill-opacity="1"/></g></svg>